# xmcd
#
# Track frame offsets: 
#        183
#        14033
#        29805
#        44293
#        57878
#        72510
#        85553
#        101035
#        114655
#        128273
#        143590
#        158323
#        171793
#        187350
#        203090
#        214940
#
# Disc length: 3056 seconds
#
# Revision: 6
# Processed by: cddbd v1.5.2PL0 Copyright (c) Steve Scherf et al.
# Submitted via: ExactAudioCopyFreeDBPlugin 1.0
#
DISCID=e10bee10
DTITLE=Bessie Smith - Empress of the Blues
DYEAR=1900
DGENRE=Blues
TTITLE0=Alexander Ragtime Band
TTITLE1=Careless Love
TTITLE2=Cake Walkin' Babies from Home
TTITLE3=After You've Gone
TTITLE4=Trombone Cholly
TTITLE5=Me and My Gin
TTITLE6=Safety Mama
TTITLE7=In the House Blues
TTITLE8=Nobody Knows You When You're Down and Out
TTITLE9=Take It Right Back
TTITLE10=He's Got Me Goin'
TTITLE11=Kitchen Man
TTITLE12=Do Your Duty
TTITLE13=Gimme a Pigfoot
TTITLE14=Take Me For a Buggy Ride
TTITLE15=I'm Down in the Dumps
EXTD=
EXTT0=
EXTT1=
EXTT2=
EXTT3=
EXTT4=
EXTT5=
EXTT6=
EXTT7=
EXTT8=
EXTT9=
EXTT10=
EXTT11=
EXTT12=
EXTT13=
EXTT14=
EXTT15=
PLAYORDER=
